<svg xmlns="http://www.w3.org/2000/svg" enable-background="new 0 0 24 24" viewBox="0 0 24 24" id="firebase"><path fill="#FFA000" d="M14.967,8.789l-2.4,2.171l-2.228-4.367l1.151-2.511c0.291-0.501,0.767-0.507,1.058,0L14.967,8.789z"></path><path fill="#F57F17" d="M12.567,10.959L3.588,19.07l6.751-12.477L12.567,10.959z"></path><path fill="#FFCA28" d="M17.09,5.245c0.409-0.399,0.831-0.264,0.938,0.302l2.223,13.228l-7.372,4.527c-0.258,0.148-0.944,0.206-0.944,0.206s-0.623-0.078-0.863-0.212L3.75,18.885L17.09,5.245z"></path><path fill="#FFA000" d="M10.779,6.512L4.028,18.518L7.037,0.969C7.15,0.425,7.479,0.37,7.777,0.852L10.779,6.512z"></path><path d="M3.751,19.73c-0.042,0-0.085-0.003-0.128-0.011c-0.408-0.07-0.683-0.458-0.612-0.867L6.082,1.032c0.09-0.523,0.483-0.92,1.003-1.013c0.514-0.092,1.02,0.144,1.283,0.602l2.759,4.792c0.206,0.359,0.083,0.817-0.276,1.024c-0.36,0.207-0.816,0.083-1.024-0.276L7.436,2.008l-2.946,17.1C4.426,19.473,4.109,19.73,3.751,19.73z"></path><path d="M12,24.001c-0.496,0-0.991-0.125-1.443-0.376L3.386,19.64c-0.205-0.114-0.345-0.317-0.378-0.55c-0.033-0.232,0.044-0.466,0.209-0.633L16.63,4.891c0.325-0.331,0.804-0.45,1.244-0.309c0.445,0.141,0.77,0.515,0.848,0.978l2.268,13.299c0.054,0.313-0.097,0.627-0.375,0.782l-7.171,3.985C12.991,23.876,12.496,24.001,12,24.001z M4.979,18.809l6.307,3.505c0.447,0.249,0.982,0.249,1.43,0l6.707-3.727l-2.093-12.27L4.979,18.809z"></path><path d="M3.749,19.73c-0.114,0-0.23-0.026-0.34-0.082c-0.369-0.188-0.516-0.64-0.327-1.009l7.84-15.375c0.207-0.407,0.618-0.667,1.074-0.676c0.401-0.008,0.875,0.233,1.1,0.633l2.363,4.216c0.202,0.361,0.074,0.818-0.287,1.021s-0.818,0.074-1.021-0.288l-2.119-3.781L4.418,19.321C4.286,19.581,4.022,19.73,3.749,19.73z"></path></svg>